<?xml version="1.0" encoding="utf-8"?>
<!-- Generator: Adobe Illustrator 26.5.0, SVG Export Plug-In . SVG Version: 6.00 Build 0)  -->
<svg version="1.1" id="Ebene_1" xmlns="http://www.w3.org/2000/svg" xmlns:xlink="http://www.w3.org/1999/xlink" x="0px" y="0px"
	 viewBox="0 0 841.89 595.28" style="enable-background:new 0 0 841.89 595.28;" xml:space="preserve">
<style type="text/css">
	.st0{fill:#B2B2B2;}
	.st1{fill:#164194;}
</style>
<g>
	<path class="st0" d="M200.3,485.53h4.8v24.13c0,8.26,2.51,10.35,7.06,10.35c4.55,0,7.06-2.09,7.06-10.35v-24.13h4.8v23.92
		c0,10.44-3.87,14.57-11.85,14.57c-7.99,0-11.86-4.12-11.86-14.57v-23.92H200.3z"/>
	<path class="st0" d="M246.22,523.24v-18.28c0-2.82-1-5.11-4.64-5.11c-4.71,0-5.38,4.18-5.38,7.79v15.61h-4.29v-20.9
		c0-1.82-0.09-3.66-0.26-5.48h4.55v3.4h0.22c1.67-2.98,3.66-3.93,7.06-3.93c5.64,0,7.04,3.4,7.04,8.62v18.28H246.22z"/>
	<path class="st0" d="M258.5,496.86v-5.06l4.29-1.93v6.99h5.75v3.24h-5.75v16.15c0,1.67,0,3.82,3.91,3.82c0.31,0,1-0.11,1.93-0.22
		v3.29c-1.4,0.11-2.82,0.42-4.22,0.42c-4.07,0-5.91-1.67-5.91-4.7v-18.76h-4.33v-3.24h4.33V496.86z"/>
	<path class="st0" d="M276.73,511.44c0,7.37,1.98,8.82,5.33,8.82c2.93,0,4.44-2.35,4.6-5.01h4.71c-0.05,5.84-3.66,8.51-9.19,8.51
		c-5.59,0-10.03-1.67-10.03-13.32c0-7.73,0.89-14.1,10.03-14.1c7.52,0,9.41,4.13,9.41,12.85v2.24H276.73z M287.02,508.2
		c0-7.68-2.15-8.62-5.28-8.62c-2.71,0-4.95,1.31-5.01,8.62H287.02z"/>
	<path class="st0" d="M303.11,500.83h0.11c1.78-4.02,3.97-4.49,8.15-4.49v4.44c-0.36-0.05-0.78-0.11-1.15-0.16
		c-0.36-0.05-0.73-0.09-1.15-0.09c-4.76,0-5.95,3.6-5.95,7.15v15.56h-4.29v-26.38h4.29v3.98H303.11z"/>
	<path class="st0" d="M330.37,523.24v-18.28c0-2.82-1-5.11-4.64-5.11c-4.71,0-5.38,4.18-5.38,7.79v15.61h-4.28v-20.9
		c0-1.82-0.11-3.66-0.26-5.48h4.55v3.4h0.22c1.67-2.98,3.66-3.93,7.04-3.93c5.64,0,7.06,3.4,7.06,8.62v18.28H330.37z"/>
	<path class="st0" d="M346.36,511.44c0,7.37,1.98,8.82,5.33,8.82c2.93,0,4.44-2.35,4.6-5.01H361c-0.05,5.84-3.66,8.51-9.2,8.51
		c-5.59,0-10.03-1.67-10.03-13.32c0-7.73,0.89-14.1,10.03-14.1c7.52,0,9.41,4.13,9.41,12.85v2.24H346.36z M356.66,508.2
		c0-7.68-2.15-8.62-5.28-8.62c-2.71,0-4.95,1.31-5.01,8.62H356.66z"/>
	<path class="st0" d="M382.61,523.24v-17.87c0-3.24-1.04-5.55-4.7-5.55c-4.29,0-5.38,3.45-5.38,7.89v15.52h-4.28v-37.72h4.28v14.74
		h0.22c1.71-3.09,3.71-3.93,7.15-3.93c4.49,0,7,2.25,7,8.2v18.7H382.61z"/>
	<path class="st0" d="M407.37,523.24v-18.28c0-2.67-0.74-5.11-4.18-5.11c-1.31,0-3.09,0.78-3.71,1.78
		c-0.78,1.31-0.99,2.87-0.99,3.86v17.76h-4.29v-20.9c0-1.82-0.11-3.66-0.26-5.48h4.55v3.29h0.09c1.26-2.82,3.5-3.81,6.59-3.81
		c2.4,0,5.17,1,6.17,3.4c1.46-2.82,3.86-3.4,6.26-3.4c2.77,0,7.21,0.63,7.21,6.84v20.05h-4.28v-18.28c0-2.67-0.73-5.11-4.18-5.11
		c-1.62,0-2.09,0.05-3.24,1c-1.24,1.04-1.46,3.66-1.46,4.64v17.76H407.37z"/>
	<path class="st0" d="M436.3,511.44c0,7.37,2,8.82,5.33,8.82c2.93,0,4.44-2.35,4.6-5.01h4.7c-0.05,5.84-3.64,8.51-9.19,8.51
		c-5.59,0-10.03-1.67-10.03-13.32c0-7.73,0.89-14.1,10.03-14.1c7.52,0,9.41,4.13,9.41,12.85v2.24H436.3z M446.59,508.2
		c0-7.68-2.15-8.62-5.28-8.62c-2.71,0-4.97,1.31-5.02,8.62H446.59z"/>
	<path class="st0" d="M472.56,523.24v-18.28c0-2.82-1-5.11-4.64-5.11c-4.71,0-5.38,4.18-5.38,7.79v15.61h-4.28v-20.9
		c0-1.82-0.11-3.66-0.26-5.48h4.55v3.4h0.22c1.67-2.98,3.66-3.93,7.04-3.93c5.64,0,7.04,3.4,7.04,8.62v18.28H472.56z"/>
	<path class="st0" d="M492.15,523.76c-5.69,0-9.24-2.51-9.09-8.57h4.86c0,1.51,0.05,5.06,4.39,5.06c2.56,0,4.55-1.3,4.55-4.02
		c0-4.71-13.16-4.8-13.16-12.7c0-2.77,1.67-7.21,9.08-7.21c4.7,0,8.73,2.25,8.35,7.48h-4.75c0.05-2.77-1.42-4.24-4.13-4.24
		c-2.29,0-4.07,1.26-4.07,3.55c0,4.64,13.16,4.55,13.16,12.59C501.34,521.52,497.37,523.76,492.15,523.76"/>
	<path class="st0" d="M521.5,496.86h4.29v29.04c0,5.91-3.91,7.31-9.72,7.31c-4.39,0-8.35-2.2-7.99-7.06h4.8
		c0.05,2.46,1.67,3.82,4.02,3.82c2.98,0,4.6-1.84,4.6-4.55v-5.49h-0.15c-1.09,2.09-3.49,3.29-5.8,3.29c-7.15,0-8.57-6.17-8.57-13.99
		c0-12.12,6.11-12.9,8.24-12.9c2.77,0,4.97,1.2,6.17,3.76h0.11v-3.24H521.5z M516.49,499.89c-4.86,0-5.02,5.86-5.02,9.35
		c0,8.46,1.94,10.44,5.11,10.44c5.17,0,5.02-6.11,5.02-9.77C521.61,506,521.86,499.89,516.49,499.89"/>
	<path class="st0" d="M538.11,500.83h0.11c1.77-4.02,3.97-4.49,8.15-4.49v4.44c-0.36-0.05-0.78-0.11-1.15-0.16
		c-0.36-0.05-0.73-0.09-1.15-0.09c-4.75,0-5.95,3.6-5.95,7.15v15.56h-4.28v-26.38h4.28v3.98H538.11z"/>
	<path class="st0" d="M565.16,496.86h4.29v20.89c0,1.84,0.09,3.66,0.26,5.48h-4.55v-3.18H565c-1.4,2.4-3.91,3.71-6.68,3.71
		c-4.6,0-7.1-2.29-7.1-6.8v-20.11h4.28v18.28c0,3.18,1.47,5.33,4.49,5.33c2.29,0,5.17-1.73,5.17-6.11V496.86z"/>
	<path class="st0" d="M581.83,499.99h0.11c1.46-2.46,3.29-3.66,6.06-3.66c4.22,0,8.51,1.67,8.51,13.26c0,6.59-0.22,14.16-8.72,14.16
		c-2.51,0-4.33-1.09-5.8-3.18h-0.16v12.64h-4.29v-36.35h4.29V499.99z M592.02,509.6c0-3.97,0-9.77-5.38-9.77
		c-5.28,0-4.8,7.31-4.8,11.33c0,3.49,0.22,9.08,4.95,9.08C591.38,520.26,592.02,516.66,592.02,509.6"/>
	<path class="st0" d="M607.94,499.99h0.12c1.46-2.46,3.29-3.66,6.06-3.66c4.22,0,8.51,1.67,8.51,13.26c0,6.59-0.22,14.16-8.72,14.16
		c-2.51,0-4.33-1.09-5.8-3.18h-0.16v12.64h-4.29v-36.35h4.29v3.13H607.94z M618.13,509.6c0-3.97,0-9.77-5.38-9.77
		c-5.28,0-4.8,7.31-4.8,11.33c0,3.49,0.22,9.08,4.95,9.08C617.51,520.26,618.13,516.66,618.13,509.6"/>
	<path class="st0" d="M633.59,511.44c0,7.37,2,8.82,5.33,8.82c2.93,0,4.44-2.35,4.59-5.01h4.7c-0.05,5.84-3.66,8.51-9.19,8.51
		c-5.59,0-10.03-1.67-10.03-13.32c0-7.73,0.89-14.1,10.03-14.1c7.52,0,9.41,4.13,9.41,12.85v2.24H633.59z M643.89,508.2
		c0-7.68-2.15-8.62-5.28-8.62c-2.71,0-4.97,1.31-5.02,8.62H643.89z"/>
</g>
<rect x="217.97" y="82.78" class="st0" width="412.09" height="380.65"/>
<polygon class="st1" points="701.63,431.99 146.38,431.99 423.82,54.16 "/>
<g>
	<path class="st0" d="M654.08,103.28h4.17c2,0,3.36-0.3,4.08-0.89c0.74-0.61,1.12-1.38,1.12-2.37c0-0.62-0.19-1.19-0.53-1.67
		c-0.35-0.51-0.84-0.89-1.47-1.13c-0.61-0.24-1.75-0.36-3.44-0.36h-3.91v6.44H654.08z M650.62,115.3V93.96h7.33
		c2.51,0,4.32,0.2,5.45,0.59c1.12,0.39,2.01,1.08,2.67,2.05c0.66,0.99,1,2.02,1,3.13c0,1.57-0.57,2.91-1.69,4.08
		c-1.11,1.16-2.58,1.79-4.41,1.94c0.74,0.31,1.35,0.69,1.81,1.13c0.85,0.84,1.9,2.25,3.16,4.24l2.6,4.18h-4.21l-1.88-3.37
		c-1.5-2.64-2.7-4.3-3.62-4.98c-0.62-0.49-1.55-0.73-2.75-0.73h-2.02v9.07H650.62z M659.32,87.77c-2.78,0-5.51,0.73-8.15,2.16
		c-2.63,1.43-4.68,3.45-6.17,6.13c-1.5,2.64-2.24,5.41-2.24,8.28c0,2.85,0.72,5.59,2.17,8.22c1.47,2.62,3.52,4.64,6.15,6.13
		c2.63,1.44,5.37,2.17,8.23,2.17c2.85,0,5.59-0.73,8.22-2.17c2.63-1.48,4.67-3.52,6.13-6.13c1.46-2.63,2.19-5.37,2.19-8.22
		c0-2.87-0.74-5.64-2.24-8.28c-1.47-2.67-3.52-4.7-6.18-6.13C664.8,88.5,662.09,87.77,659.32,87.77 M659.32,84.49
		c3.32,0,6.57,0.86,9.74,2.59c3.17,1.7,5.64,4.14,7.41,7.33c1.78,3.17,2.64,6.48,2.64,9.95c0,3.4-0.88,6.69-2.62,9.85
		c-1.74,3.16-4.18,5.61-7.33,7.37c-3.14,1.73-6.42,2.6-9.85,2.6c-3.43,0-6.72-0.88-9.88-2.6c-3.14-1.75-5.59-4.21-7.33-7.37
		c-1.75-3.16-2.63-6.44-2.63-9.85c0-3.47,0.88-6.77,2.64-9.95c1.79-3.18,4.26-5.63,7.44-7.33
		C652.74,85.35,655.99,84.49,659.32,84.49"/>
	<path class="st0" d="M244.66,332.16c0.4,0.8,1.34,1.47,2.67,1.47h41.66c2.4,0,4.14-0.4,4.94-1.47c0.8-1.2,1.07-2.67,2.4-2.67
		c1.2,0,1.74,0.53,1.74,3.74c0,6.54-0.8,14.56-1.07,17.23c-0.4,4.41-1.34,4.54-2,4.54c-2,0-1.74-5.74-3.87-10.95
		c-2.4-5.88-5.74-7.21-11.75-7.21h-4.14c-2.67,0-3.2,0.4-3.2,2.4v66.64c0,6.68,1.2,7.88,5.21,8.28c4.54,0.53,5.07,0.93,5.07,1.87
		c0,1.6-1.47,1.6-2.94,1.6c-1.6,0-4.54-0.53-12.15-0.53c-6.54,0-10.42,0.53-11.89,0.53c-2,0-2.54-0.67-2.54-1.6
		c0-1.6,1.74-1.74,5.34-2c4.54-0.27,4.67-2.67,4.67-7.88v-67.17c0-1.74-0.53-2.14-4.41-2.14h-1.87c-6.54,0-10.02,3.47-12.69,8.28
		c-2.4,4.14-3.47,10.02-5.21,10.02c-1.07,0-1.47-0.4-1.47-2.67c0-0.27,1.07-8.81,2.27-14.96c0.93-4.81,1.6-8.01,2.8-8.01
		C243.85,329.49,243.99,330.96,244.66,332.16"/>
	<path class="st0" d="M315.43,339.37c0,4.67-2.27,6.68-5.07,6.68c-2.94,0-5.07-2-5.07-6.54c0-4.54,2.4-6.68,5.07-6.68
		C313.16,332.83,315.43,334.97,315.43,339.37 M314.5,356.87v51.01c0,3.47,0.27,5.88,4.81,6.54c2.8,0.4,3.47,0.8,3.47,1.87
		c0,0.93-0.53,1.34-2.14,1.34c-1.47,0-4.54-0.53-10.42-0.53c-6.28,0-9.35,0.53-10.28,0.53c-1.2,0-1.87-0.53-1.87-1.47
		c0-1.2,1.47-1.6,3.47-1.87c4.14-0.67,4.67-2,4.67-6.28v-37.66c0-3.74-1.6-4.27-3.2-4.81c-2-0.67-3.87-0.27-3.87-1.87
		c0-0.67,0.67-1.2,4.41-2.54c2.14-0.8,5.47-2.54,7.74-4.41c0.93-0.67,1.34-1.34,2.14-1.34C313.96,355.4,314.5,355.93,314.5,356.87"
		/>
	<path class="st0" d="M345.61,357v4.27c0,2,0,3.74,0.67,3.74c2.27,0,8.55-8.95,18.56-8.95c4.41,0,8.68,1.74,11.48,4.67
		c2.54,2.67,4.27,7.21,4.27,12.42v34.72c0,5.47,1.87,6.28,4.01,6.54c1.87,0.27,4.14,0.13,4.14,1.87c0,0.94-0.93,1.34-2,1.34
		c-0.4,0-4.14-0.53-10.28-0.53c-5.74,0-8.55,0.53-9.61,0.53c-1.6,0-2.14-0.4-2.14-1.47c0-0.8,0.93-1.47,2.94-1.74
		c4.14-0.53,4.67-2.14,4.67-5.74v-35.12c0-8.01-4.54-12.15-11.62-12.15c-7.75,0-14.56,6.01-14.56,12.95v34.72
		c0,3.74,0.8,4.81,4.01,5.34c2.67,0.4,4.94,0.13,4.94,1.87c0,1.07-0.8,1.34-2,1.34c-0.67,0-4.81-0.53-11.08-0.53
		c-5.21,0-8.15,0.53-9.35,0.53c-1.6,0-2.4-0.53-2.4-1.6c0-0.8,0.8-1.47,2.54-1.6c3.74-0.4,5.21-1.6,5.21-7.08v-36.99
		c0-3.2-0.67-4.27-2.8-4.54c-2.14-0.27-4.27,0.13-4.27-1.34c0-0.8,0.93-1.2,2.4-1.87c1.47-0.67,3.34-1.6,5.48-2.94
		c4.27-2.8,5.21-4.27,5.88-4.27C345.34,355.4,345.61,356.06,345.61,357"/>
	<path class="st0" d="M407.3,341.78v12.02c0,1.47,0,3.07,2.67,3.07h5.74c3.34,0,3.87,0.4,3.87,2c0,2-0.93,2.4-3.74,2.4h-5.21
		c-2.67,0-3.34,0-3.34,2.27v42.6c0,4.14,1.07,7.08,4.67,7.08c3.74,0,5.47-3.74,6.94-5.88c0.67-0.93,0.93-1.34,1.6-1.34
		c0.53,0,1.07,0.27,1.07,1.07c0,0.8-2.14,11.62-11.88,11.62c-9.35,0-10.55-6.68-10.55-12.42v-43.67c0-2.14-1.87-2.27-2.94-2.27
		c-0.53,0-1.34,0.13-1.87,0.13c-0.93,0-1.87-0.27-1.87-1.6c0-0.53,0.53-1.2,1.34-2.14c1.07-1.2,2.54-2.67,4.41-5.07
		c3.87-5.21,5.21-8.15,6.14-9.88c0.8-1.47,0.8-2.27,1.74-2.27C407.3,339.51,407.3,340.84,407.3,341.78"/>
	<path class="st0" d="M458.32,357.67c0.8,0.67,0.8,4.41,0.8,5.21v5.21c0,1.74-0.27,3.61-1.34,3.61c-1.2,0-1.47-1.47-2.94-5.34
		c-2.27-6.01-5.07-7.88-8.95-7.88c-5.74,0-10.42,4.01-10.42,9.35c0,4.67,3.34,8.01,9.75,11.48c10.02,5.34,17.36,10.02,17.36,20.16
		c0,11.62-8.28,19.23-20.97,19.23c-5.88,0-11.22-1.74-12.29-2.54c-1.07-0.8-1.2-3.07-1.2-10.68c0-4.41,0-7.21,1.6-7.21
		c0.8,0,1.2,0.8,1.6,2.4c0.53,2,2,7.08,3.07,8.95c1.74,3.07,4.14,6.01,9.21,6.01c6.81,0,11.35-4.67,11.35-11.08
		c0-7.88-5.48-11.48-13.09-15.49c-10.82-5.61-13.35-10.95-13.35-17.63c0-9.75,7.88-16.02,18.96-16.02
		C452.44,355.4,456.85,356.46,458.32,357.67"/>
	<path class="st0" d="M508.53,357.53c3.07,1.6,3.07,1.74,3.07,6.81c0,3.47-0.27,6.41-0.53,8.01c-0.27,1.47-0.94,2.14-2.4,2.14
		c-2.27,0-3.07-4.54-5.21-8.95c-2.27-4.81-4.14-6.14-7.88-6.14c-8.95,0-16.16,10.95-16.16,25.24c0,17.63,6.28,28.18,16.83,28.18
		c8.15,0,11.62-4.67,13.62-8.95c0.67-1.34,1.34-3.34,2.14-3.34c0.53,0,1.07,0.53,1.07,1.6c0,6.94-7.34,16.56-19.5,16.56
		c-13.76,0-23.1-11.89-23.1-29.51c0-19.23,11.75-33.79,27.38-33.79C501.58,355.4,505.32,355.93,508.53,357.53"/>
	<path class="st0" d="M533.5,324.28v39.53c0,0.4,0,0.93,0.8,0.93c1.34,0,2.4-1.87,4.81-3.74c4.01-3.07,8.01-4.94,12.82-4.94
		c11.75,0,16.02,9.35,16.02,17.49v33.79c0,4.01,0.53,6.81,4.27,7.08c2.8,0.27,3.74,0.67,3.74,1.87c0,0.93-0.8,1.34-1.74,1.34
		c-1.2,0-5.21-0.53-10.42-0.53c-6.01,0-8.55,0.53-9.75,0.53c-1.47,0-2-0.4-2-1.47c0-1.47,1.2-1.47,3.74-1.87
		c3.74-0.53,3.87-3.21,3.87-5.88v-34.99c0-7.88-4.41-12.42-11.62-12.42c-7.21,0-14.55,5.74-14.55,12.82v34.59
		c0,4.54,2.54,5.47,4.94,5.88c2.14,0.4,4.01,0.27,4.01,2c0,0.93-0.8,1.34-2,1.34c-0.67,0-4.01-0.53-11.08-0.53
		c-5.74,0-8.28,0.53-9.88,0.53c-1.34,0-1.87-0.67-1.87-1.6c0-0.8,0.8-1.47,2.54-1.6c3.74-0.4,5.21-1.47,5.21-7.08v-72.38
		c0-3.07-1.47-3.47-3.61-3.87c-1.87-0.4-3.47-0.13-3.47-1.47c0-1.34,0.93-1.34,2.27-1.87c4.54-1.6,6.54-2.14,9.62-3.87
		c0.93-0.53,1.87-1.2,2.67-1.2C533.5,322.68,533.5,323.61,533.5,324.28"/>
	<path class="st0" d="M599.6,324.42v84.53c0,7.08,8.81,4.41,8.81,7.08c0,1.07-0.4,1.6-1.47,1.6c-1.07,0-5.88-0.53-11.22-0.53
		s-9.61,0.53-10.68,0.53c-0.93,0-1.74-0.4-1.74-1.6c0-0.93,0.93-1.34,2.67-1.6c3.74-0.4,5.34-1.34,5.34-6.01v-73.18
		c0-0.27,0.13-0.67,0.13-0.93c0-4.54-7.08-2.54-7.08-4.41c-0.13-1.34-0.27-1.34,5.61-3.34c6.54-2.14,7.74-3.87,8.95-3.87
		C599.46,322.68,599.6,323.48,599.6,324.42"/>
</g>
</svg>
